#!OML:ASF E:\Steps\Project 1\Capture day 1\Session 2\Subject.ASF
:FULLY-SPECIFIED
:DEGREES
380
root 1.88824 16.6745 13.7107 -154.488 -12.7432 177.648
lowerback -18.894 -4.87087 -8.64906
upperback 2.00904 -4.51986 -0.557762
thorax 13.604 -2.74441 2.86923
lowerneck 10.5167 -7.2631 -3.9812
upperneck 12.81 -12.8529 9.17979
head 2.98711 -6.99986 3.4004
rclavicle 6.36111e-015 -3.65764e-014
rhumerus -50.9064 -13.3791 -71.9739
rradius 36.5072
rwrist -4.36274
rhand -7.73473 -54.3931
rfingers 7.12502
rthumb 18.1641 -83.565
lclavicle 6.36111e-015 -3.65764e-014
lhumerus -32.7109 -11.9534 76.9066
lradius 35.6437
lwrist 4.17914
lhand -22.6312 -13.9987
lfingers 7.12502
lthumb 3.79929 15.9472
rfemur -59.6935 -6.05947 8.09761
rtibia 34.8263
rfoot -6.5016 -4.86785
rtoes -32.1845
lfemur -8.15193 -17.248 -8.98875
ltibia 27.8458
lfoot -11.9289 -5.94029
ltoes -32.7027
381
root 1.93826 16.6979 13.6289 -154.083 -12.392 177.345
lowerback -18.6096 -4.91749 -8.68066
upperback 2.05888 -4.60441 -0.514804
thorax 13.5143 -2.78663 2.92394
lowerneck 10.81 -7.1015 -4.07742
upperneck 12.148 -12.4784 9.13117
head 2.71742 -6.81403 3.43928
rclavicle 3.22031e-014 7.15625e-015
rhumerus -50.5932 -13.008 -72.0579
rradius 36.6718
rwrist -4.6367
rhand -7.47906 -54.2313
rfingers 7.12502
rthumb 18.41 -83.3801
lclavicle 3.22031e-014 7.15625e-015
lhumerus -32.4672 -12.4602 77.3333
lradius 35.805
lwrist 3.83196
lhand -22.8663 -14.3696
lfingers 7.12502
lthumb 3.57225 15.5802
rfemur -59.8056 -5.98238 8.07076
rtibia 34.5456
rfoot -6.54333 -4.48901
rtoes -31.6058
lfemur -8.05554 -17.109 -9.1768
ltibia 27.3321
lfoot -10.8924 -5.44515
ltoes -32.1524
382
root 1.97972 16.7225 13.5548 -153.646 -12.1308 177.079
lowerback -18.261 -4.94041 -8.5917
upperback 2.05628 -4.69716 -0.428547
thorax 13.3187 -2.82171 2.96543
lowerneck 11.007 -7.0188 -4.30701
upperneck 11.7525 -12.2997 9.14124
head 2.56814 -6.73015 3.50025
rclavicle 3.37934e-014 4.45278e-014
rhumerus -50.3208 -12.7284 -71.9829
rradius 36.7665
rwrist -4.79173
rhand -7.49449 -53.8489
rfingers 7.12502
rthumb 18.3952 -82.9992
lclavicle 3.37934e-014 4.45278e-014
lhumerus -32.2802 -13.0101 77.8191
lradius 36.04
lwrist 3.55794
lhand -23.1351 -14.8576
lfingers 7.12502
lthumb 3.3126 15.0964
rfemur -60.1548 -6.10973 8.21081
rtibia 34.6503
rfoot -6.65423 -4.10729
rtoes -31.3604
lfemur -8.09768 -16.9419 -9.29272
ltibia 26.9282
lfoot -9.91109 -5.07885
ltoes -31.6873
383
root 2.02185 16.7498 13.4817 -153.26 -11.8601 176.847
lowerback -17.7629 -4.88471 -8.30205
upperback 2.0344 -4.73434 -0.456487
thorax 12.9748 -2.80955 2.79605
lowerneck 10.9011 -6.94051 -4.57944
upperneck 11.8023 -12.2522 9.38387
head 2.62298 -6.70937 3.60903
rclavicle -9.14409e-015 -1.19271e-014
rhumerus -50.0342 -12.6891 -72.0124
rradius 36.7744
rwrist -4.60136
rhand -7.51882 -53.7831
rfingers 7.12502
rthumb 18.3718 -82.9355
lclavicle -9.14409e-015 -1.19271e-014
lhumerus -32.1159 -13.6881 78.1428
lradius 36.3363
lwrist 3.16507
lhand -23.4601 -14.8153
lfingers 7.12502
lthumb 2.99881 15.1433
rfemur -60.6146 -6.10401 8.32817
rtibia 35.101
rfoot -6.98276 -3.81847
rtoes -31.1969
lfemur -8.09896 -16.8468 -9.38232
ltibia 26.5655
lfoot -8.86901 -4.68568
ltoes -29.5246
384
root 2.06476 16.7782 13.4072 -152.797 -11.584 176.673
lowerback -17.455 -4.90737 -8.02449
upperback 2.0737 -4.85552 -0.390351
thorax 12.8347 -2.84564 2.6978
lowerneck 10.4864 -6.77991 -5.03996
upperneck 11.9707 -12.0968 9.62428
head 2.76205 -6.62609 3.72986
rclavicle -8.74653e-015 8.74653e-015
rhumerus -49.4906 -12.4595 -72.0728
rradius 36.786
rwrist -4.40482
rhand -7.29494 -53.8684
rfingers 7.12502
rthumb 18.5871 -83.0004
lclavicle -8.74653e-015 8.74653e-015
lhumerus -31.7804 -14.0959 78.4452
lradius 36.6561
lwrist 2.70503
lhand -23.8066 -14.6743
lfingers 7.12502
lthumb 2.6641 15.2888
rfemur -60.6729 -5.75601 8.20251
rtibia 34.6318
rfoot -6.94579 -3.92193
rtoes -31.3499
lfemur -8.24934 -16.7526 -9.38266
ltibia 26.2708
lfoot -7.74043 -4.19546
ltoes -27.6673
385
root 2.10862 16.8077 13.3335 -152.242 -11.4397 176.434
lowerback -17.4631 -4.89417 -7.99866
upperback 1.84477 -4.85825 -0.397688
thorax 12.5703 -2.83679 2.6855
lowerneck 11.8626 -6.68111 -4.85168
upperneck 10.9334 -11.8334 9.57955
head 2.20699 -6.54015 3.78556
rclavicle 2.0276e-014 -2.54444e-014
rhumerus -49.94 -12.3308 -72.0311
rradius 37.028
rwrist -4.40718
rhand -7.40893 -54.1594
rfingers 7.12502
rthumb 18.4775 -83.3019
lclavicle 2.0276e-014 -2.54444e-014
lhumerus -32.3182 -15.0023 78.8095
lradius 37.3464
lwrist 2.53384
lhand -23.871 -15.1537
lfingers 7.12502
lthumb 2.6019 14.8102
rfemur -61.1982 -5.79923 8.30762
rtibia 35.1062
rfoot -7.37405 -3.87796
rtoes -31.8414
lfemur -8.59665 -16.6771 -9.34677
ltibia 26.0032
lfoot -6.37991 -3.78019
ltoes -27.5566
386
root 2.15357 16.8362 13.2562 -151.71 -11.3614 176.123
lowerback -17.2857 -4.96773 -7.76723
upperback 2.12053 -5.00329 -0.409297
thorax 12.78 -2.89523 2.49812
lowerneck 11.0448 -6.65416 -4.70949
upperneck 10.7188 -11.5862 9.31756
head 2.22865 -6.35314 3.65045
rclavicle 7.55382e-015 -7.95139e-016
rhumerus -48.9832 -12.3761 -72.3326
rradius 37.1249
rwrist -4.21937
rhand -7.82488 -54.4858
rfingers 7.12502
rthumb 18.0773 -83.6657
lclavicle 7.55382e-015 -7.95139e-016
lhumerus -31.698 -15.1153 78.7706
lradius 38.3186
lwrist 2.71688
lhand -23.2744 -14.5441
lfingers 7.12502
lthumb 3.17809 15.412
rfemur -61.2094 -5.90908 8.26141
rtibia 34.6062
rfoot -7.2745 -3.96926
rtoes -31.7008
lfemur -8.77953 -16.7675 -9.3824
ltibia 25.4285
lfoot -4.77864 -3.22693
ltoes -27.7651
387
root 2.19889 16.8659 13.1751 -151.285 -11.271 175.82
lowerback -17.1485 -5.5325 -8.09533
upperback 1.5179 -5.78051 0.0679909
thorax 12.1876 -3.27661 3.01733
lowerneck 13.467 -7.51372 -6.36303
upperneck 10.059 -10.0764 8.88204
head 1.63566 -4.80687 3.92572
rclavicle 1.17283e-014 -2.62396e-014
rhumerus -49.5743 -10.1622 -72.2108
rradius 37.4309
rwrist -4.41524
rhand -8.03587 -54.5042
rfingers 7.12502
rthumb 17.8743 -83.7028
lclavicle 1.17283e-014 -2.62396e-014
lhumerus -33.2433 -13.8397 79.4776
lradius 38.9376
lwrist 2.11801
lhand -23.3678 -14.9952
lfingers 7.12502
lthumb 3.08793 14.9622
rfemur -61.164 -5.83253 8.10173
rtibia 34.305
rfoot -7.35282 -4.08815
rtoes -30.5809
lfemur -8.83863 -16.8052 -9.43605
ltibia 24.8506
lfoot -3.24131 -2.70397
ltoes -28.3667
388
root 2.24468 16.8981 13.0946 -150.852 -11.2594 175.573
lowerback -16.9657 -5.69045 -7.98975
upperback 1.59513 -6.03493 0.202961
thorax 12.2081 -3.394 3.04207
lowerneck 12.8442 -7.29071 -7.17673
upperneck 10.4925 -9.912 9.34742
head 1.90347 -4.73568 4.16319
rclavicle 3.61788e-014 -7.95139e-016
rhumerus -48.859 -9.77136 -72.2988
rradius 37.29
rwrist -4.31007
rhand -8.1031 -54.211
rfingers 7.12502
rthumb 17.8096 -83.4155
lclavicle 3.61788e-014 -7.95139e-016
lhumerus -32.5932 -13.7229 79.5745
lradius 39.0297
lwrist 1.38634
lhand -24.0757 -15.5505
lfingers 7.12502
lthumb 2.40426 14.4157
rfemur -61.2196 -5.67039 7.95992
rtibia 34.2744
rfoot -7.6308 -4.2845
rtoes -29.4952
lfemur -9.08648 -16.7771 -9.36433
ltibia 24.5435
lfoot -1.7848 -2.31253
ltoes -28.7046
389
root 2.29284 16.9313 13.0158 -150.332 -11.3021 175.427
lowerback -16.849 -5.23172 -7.27196
upperback 2.25083 -5.50569 -0.233314
thorax 12.6998 -3.10007 2.2937
lowerneck 10.6747 -6.28157 -5.58438
upperneck 10.309 -11.038 9.68282
head 2.18112 -6.06799 3.89377
rclavicle -1.27222e-014 8.74653e-015
rhumerus -47.5455 -11.7292 -72.7131
rradius 37.0434
rwrist -3.66374
rhand -8.16862 -53.723
rfingers 7.12502
rthumb 17.7466 -82.9332
lclavicle -1.27222e-014 8.74653e-015
lhumerus -30.0871 -15.5245 78.9298
lradius 39.1237
lwrist 1.38947
lhand -24.321 -15.5377
lfingers 7.12502
lthumb 2.16736 14.4311
rfemur -61.3697 -5.45478 7.90954
rtibia 34.1813
rfoot -7.85781 -4.57397
rtoes -29.0617
lfemur -9.48498 -16.6721 -9.11421
ltibia 24.2309
lfoot -0.24974 -1.82778
ltoes -28.5467
390
root 2.3409 16.9674 12.9366 -149.815 -11.1642 175.262
lowerback -16.8483 -5.23093 -7.13493
upperback 2.08459 -5.54175 -0.237151
thorax 12.4954 -3.10188 2.21232
lowerneck 11.235 -6.24775 -5.49563
upperneck 10.0423 -10.9638 9.4744
head 1.99543 -6.05151 3.85023
rclavicle 1.39149e-014 1.82882e-014
rhumerus -47.6049 -11.4459 -72.8752
rradius 37.0622
rwrist -3.36573
rhand -8.17529 -53.295
rfingers 7.12502
rthumb 17.7402 -82.5058
lclavicle 1.39149e-014 1.82882e-014
lhumerus -29.9362 -16.1407 78.972
lradius 39.6433
lwrist 1.67021
lhand -24.207 -15.4096
lfingers 7.12502
lthumb 2.27744 14.558
rfemur -61.4607 -5.15652 7.78678
rtibia 33.828
rfoot -7.96749 -4.6639
rtoes -28.4667
lfemur -9.843 -16.474 -9.0068
ltibia 23.8932
lfoot 1.21219 -1.19957
ltoes -28.5574
391
root 2.38709 17.004 12.8613 -149.266 -10.9383 174.99
lowerback -16.6275 -5.1448 -7.02756
upperback 1.98704 -5.46642 -0.315008
thorax 12.2251 -3.05292 2.11179
lowerneck 11.3216 -6.23157 -5.38444
upperneck 9.80929 -10.8752 9.41682
head 1.8977 -6.00006 3.82531
rclavicle -3.08116e-014 -6.16232e-014
rhumerus -47.284 -11.3963 -73.0597
rradius 36.9882
rwrist -3.34568
rhand -8.09245 -53.2252
rfingers 7.12502
rthumb 17.8199 -82.4288
lclavicle -3.08116e-014 -6.16232e-014
lhumerus -29.4239 -16.7258 78.9187
lradius 40.0995
lwrist 1.93186
lhand -23.9143 -15.2343
lfingers 7.12502
lthumb 2.56011 14.7301
rfemur -61.5372 -4.98839 7.6061
rtibia 33.3577
rfoot -8.0228 -4.61029
rtoes -27.7101
lfemur -10.3045 -16.3476 -9.09446
ltibia 23.717
lfoot 2.5445 -0.629966
ltoes -28.4351
392
root 2.43362 17.0418 12.7874 -148.799 -10.8399 174.698
lowerback -16.2845 -5.18136 -6.98984
upperback 1.8506 -5.56078 -0.288328
thorax 11.8774 -3.09022 2.1277
lowerneck 11.0621 -6.09246 -5.94927
upperneck 10.352 -10.8802 9.77702
head 2.14272 -6.02165 3.99922
rclavicle -7.55382e-015 3.61788e-014
rhumerus -47.0165 -10.9335 -73.2639
rradius 37.1067
rwrist -3.52419
rhand -8.15698 -53.8733
rfingers 7.12502
rthumb 17.7578 -83.0824
lclavicle -7.55382e-015 3.61788e-014
lhumerus -28.9811 -16.8075 78.9695
lradius 40.4429
lwrist 2.38068
lhand -24.1764 -15.4055
lfingers 7.12502
lthumb 2.30702 14.5618
rfemur -61.4668 -4.79467 7.33987
rtibia 32.9026
rfoot -8.08313 -4.82354
rtoes -27.237
lfemur -10.7285 -16.3368 -9.15797
ltibia 23.6448
lfoot 3.79668 -0.0873216
ltoes -26.4568
393
root 2.47657 17.079 12.7103 -148.49 -10.6863 174.469
lowerback -16.1281 -5.02005 -6.84958
upperback 1.97236 -5.36917 -0.41414
thorax 11.8766 -2.98927 1.97187
lowerneck 11.4363 -6.17596 -5.35954
upperneck 9.28135 -10.6846 9.50406
head 1.71076 -5.89123 3.86555
rclavicle -1.94809e-014 -9.93923e-015
rhumerus -46.7641 -11.2019 -73.464
rradius 37.3331
rwrist -3.43271
rhand -8.44088 -54.4149
rfingers 7.12502
rthumb 17.4846 -83.6486
lclavicle -1.94809e-014 -9.93923e-015
lhumerus -28.092 -17.4951 78.8241
lradius 40.7842
lwrist 2.96757
lhand -25.1795 -15.6283
lfingers 7.12502
lthumb 1.33824 14.3472
rfemur -61.272 -4.41371 7.0373
rtibia 32.5077
rfoot -8.15477 -5.1517
rtoes -27.2769
lfemur -10.8749 -16.3823 -9.26162
ltibia 23.5398
lfoot 4.90179 0.705295
ltoes -22.4224
